<svg width="29" height="29" viewBox="0 0 29 29" fill="none" xmlns="http://www.w3.org/2000/svg">
<mask id="mask0_6_223" style="mask-type:alpha" maskUnits="userSpaceOnUse" x="0" y="0" width="29" height="29">
<rect width="29" height="29" fill="#D9D9D9"/>
</mask>
<g mask="url(#mask0_6_223)">
<path d="M6.34369 27.9729C5.19335 27.9729 4.22105 27.5687 3.42677 26.7604C2.63249 25.952 2.23535 24.9867 2.23535 23.8646V7.52189C2.23535 6.37136 2.63249 5.39905 3.42677 4.60497C4.22105 3.8107 5.19335 3.41356 6.34369 3.41356H6.79681V2.71877C6.79681 2.26363 6.97 1.8679 7.31639 1.53158C7.66278 1.19526 8.06355 1.0271 8.51868 1.0271C9.00202 1.0271 9.4048 1.19526 9.72702 1.53158C10.0492 1.8679 10.2104 2.26363 10.2104 2.71877V3.41356H18.7895V2.71877C18.7895 2.26363 18.9557 1.8679 19.288 1.53158C19.6202 1.19526 20.023 1.0271 20.4963 1.0271C20.9696 1.0271 21.3723 1.19526 21.7046 1.53158C22.0369 1.8679 22.2031 2.26363 22.2031 2.71877V3.41356H22.6562C23.8067 3.41356 24.779 3.8107 25.5731 4.60497C26.3674 5.39905 26.7645 6.37136 26.7645 7.52189V23.8646C26.7645 24.9867 26.3674 25.952 25.5731 26.7604C24.779 27.5687 23.8067 27.9729 22.6562 27.9729H6.34369ZM6.34369 23.8646H22.6562V11.8417H6.34369V23.8646ZM6.34369 9.12293H22.6562V7.52189H6.34369V9.12293ZM14.5147 17.2188C14.0936 17.2188 13.7342 17.0719 13.4363 16.778C13.1384 16.4842 12.9895 16.1298 12.9895 15.7147C12.9895 15.2996 13.1384 14.9431 13.4363 14.645C13.7342 14.347 14.0936 14.1979 14.5147 14.1979C14.9358 14.1979 15.2904 14.3448 15.5784 14.6387C15.8664 14.9325 16.0104 15.2869 16.0104 15.702C16.0104 16.1171 15.8664 16.4736 15.5784 16.7717C15.2904 17.0697 14.9358 17.2188 14.5147 17.2188ZM9.67295 17.2188C9.25788 17.2188 8.90132 17.0719 8.60327 16.778C8.30521 16.4842 8.15619 16.1298 8.15619 15.7147C8.15619 15.2996 8.3031 14.9431 8.59692 14.645C8.89075 14.347 9.2452 14.1979 9.66026 14.1979C10.0753 14.1979 10.4319 14.3448 10.7299 14.6387C11.028 14.9325 11.177 15.2869 11.177 15.702C11.177 16.1171 11.0301 16.4736 10.7363 16.7717C10.4425 17.0697 10.088 17.2188 9.67295 17.2188ZM19.3185 17.2188C18.9256 17.2188 18.5781 17.0719 18.276 16.778C17.9739 16.4842 17.8229 16.1298 17.8229 15.7147C17.8229 15.2996 17.9739 14.9431 18.276 14.645C18.5781 14.347 18.9306 14.1979 19.3336 14.1979C19.7365 14.1979 20.089 14.3448 20.3909 14.6387C20.6927 14.9325 20.8437 15.2869 20.8437 15.702C20.8437 16.1171 20.6948 16.4736 20.3969 16.7717C20.0991 17.0697 19.7396 17.2188 19.3185 17.2188ZM14.5147 22.0521C14.0936 22.0521 13.7342 21.9011 13.4363 21.599C13.1384 21.2969 12.9895 20.9444 12.9895 20.5414C12.9895 20.1384 13.1384 19.786 13.4363 19.4841C13.7342 19.1822 14.0936 19.0313 14.5147 19.0313C14.9358 19.0313 15.2904 19.1802 15.5784 19.4781C15.8664 19.7759 16.0104 20.1354 16.0104 20.5565C16.0104 20.9494 15.8664 21.2969 15.5784 21.599C15.2904 21.9011 14.9358 22.0521 14.5147 22.0521ZM9.67295 22.0521C9.25788 22.0521 8.90132 21.9011 8.60327 21.599C8.30521 21.2969 8.15619 20.9444 8.15619 20.5414C8.15619 20.1384 8.3031 19.786 8.59692 19.4841C8.89075 19.1822 9.2452 19.0313 9.66026 19.0313C10.0753 19.0313 10.4319 19.1802 10.7299 19.4781C11.028 19.7759 11.177 20.1354 11.177 20.5565C11.177 20.9494 11.0301 21.2969 10.7363 21.599C10.4425 21.9011 10.088 22.0521 9.67295 22.0521ZM19.3185 22.0521C18.9256 22.0521 18.5781 21.9011 18.276 21.599C17.9739 21.2969 17.8229 20.9444 17.8229 20.5414C17.8229 20.1384 17.9739 19.786 18.276 19.4841C18.5781 19.1822 18.9306 19.0313 19.3336 19.0313C19.7365 19.0313 20.089 19.1802 20.3909 19.4781C20.6927 19.7759 20.8437 20.1354 20.8437 20.5565C20.8437 20.9494 20.6948 21.2969 20.3969 21.599C20.0991 21.9011 19.7396 22.0521 19.3185 22.0521Z" fill="#1E1E1E"/>
</g>
</svg>
