<svg width="29" height="29" viewBox="0 0 29 29" fill="none" xmlns="http://www.w3.org/2000/svg">
<mask id="mask0_6_229" style="mask-type:alpha" maskUnits="userSpaceOnUse" x="0" y="0" width="29" height="29">
<rect width="29" height="29" fill="#D9D9D9"/>
</mask>
<g mask="url(#mask0_6_229)">
<path d="M15.1342 26.6135V20.8437L13.5332 19.3031L12.8988 22.1729C12.7579 22.7166 12.4608 23.1446 12.0077 23.4567C11.5546 23.7689 11.0461 23.8746 10.4822 23.7739L4.62175 22.5656C4.11827 22.4649 3.7306 22.2081 3.45873 21.7953C3.18685 21.3824 3.10126 20.9243 3.20195 20.4208C3.30265 19.9375 3.56445 19.5548 3.98737 19.2729C4.41029 18.9909 4.87348 18.9003 5.37695 19.001L9.42487 19.8468L11.0561 11.5395L9.96862 11.9625V14.5C9.96862 15.0236 9.79241 15.4566 9.43997 15.7989C9.08754 16.1413 8.65959 16.3125 8.15612 16.3125C7.63251 16.3125 7.19449 16.1362 6.84206 15.7838C6.48963 15.4314 6.31341 14.9934 6.31341 14.4698V10.9656C6.31341 10.5427 6.43425 10.155 6.67591 9.80256C6.91758 9.45013 7.22973 9.19336 7.61237 9.03225L11.6905 7.401C12.4961 7.07878 13.0901 6.86229 13.4728 6.75152C13.8554 6.64076 14.2079 6.58538 14.5301 6.58538C15.0738 6.58538 15.5622 6.72635 15.9952 7.00829C16.4282 7.29024 16.7856 7.66281 17.0676 8.126L18.3363 10.0895C18.6988 10.6534 19.1721 11.1468 19.7561 11.5698C20.3401 11.9927 21.0349 12.2948 21.8405 12.476C22.344 12.5968 22.7719 12.8385 23.1243 13.201C23.4768 13.5635 23.653 13.9965 23.653 14.5C23.653 15.0236 23.4667 15.4566 23.0941 15.7989C22.7216 16.1413 22.2836 16.2722 21.7801 16.1916C20.7329 16.0305 19.7863 15.7435 18.9405 15.3307C18.0947 14.9178 17.3495 14.4194 16.7051 13.8354L16.2822 16.1312L18.1249 17.8531C18.3263 18.0545 18.4823 18.2861 18.5931 18.5479C18.7039 18.8097 18.7592 19.0816 18.7592 19.3635V26.6135C18.7592 27.117 18.583 27.5449 18.2306 27.8974C17.8782 28.2498 17.4502 28.426 16.9467 28.426C16.4433 28.426 16.0153 28.2498 15.6629 27.8974C15.3105 27.5449 15.1342 27.117 15.1342 26.6135ZM16.4332 6.13225C15.5874 6.13225 14.8724 5.84024 14.2884 5.25621C13.7044 4.67218 13.4124 3.96732 13.4124 3.14163C13.4124 2.29579 13.7044 1.5859 14.2884 1.01194C14.8724 0.43798 15.5874 0.151001 16.4332 0.151001C17.2589 0.151001 17.9587 0.43798 18.5327 1.01194C19.1066 1.5859 19.3936 2.29579 19.3936 3.14163C19.3936 3.96732 19.1066 4.67218 18.5327 5.25621C17.9587 5.84024 17.2589 6.13225 16.4332 6.13225Z" fill="white"/>
</g>
</svg>
